<svg width="32" height="32" viewBox="0 0 32 32" fill="none" xmlns="http://www.w3.org/2000/svg">
<g clip-path="url(#clip0_1108_38)">
<path d="M0 16.0005C0 7.17767 7.17767 2.97432e-06 16.0005 2.97432e-06C24.8232 2.97432e-06 32 7.17767 32 16.0005C32 24.8223 24.8232 32 16.0005 32C7.17767 32 0 24.8223 0 16.0005Z" fill="#F0C900"/>
<path d="M16.0004 0.770354C7.58932 0.770354 0.770386 7.58838 0.770386 16.0004C0.770386 24.4116 7.58932 31.2306 16.0004 31.2306C24.4117 31.2306 31.2306 24.4116 31.2306 16.0004C31.2306 7.58838 24.4117 0.770354 16.0004 0.770354ZM16.0004 4.77805C22.1988 4.77805 27.2229 9.80212 27.2229 16.0004C27.2229 22.1979 22.1988 27.222 16.0004 27.222C9.80301 27.222 4.77808 22.1979 4.77808 16.0004C4.77808 9.80212 9.80301 4.77805 16.0004 4.77805Z" fill="#008754"/>
<path d="M10.0837 24.2832V7.71681H12.5985V14.8166H19.4024V7.71681H21.9163V24.2832H19.4024V17.0355H12.5985V24.2832" fill="#008754"/>
</g>
<defs>
<clipPath id="clip0_1108_38">
<rect width="32" height="32" fill="white"/>
</clipPath>
</defs>
</svg>
