<svg width="48" height="48" viewBox="0 0 48 48" fill="none" xmlns="http://www.w3.org/2000/svg">
<rect x="18" y="34" width="12" height="14" fill="#595959"/>
<path d="M8 24.0005C8 15.1777 15.1777 8 24.0005 8C32.8232 8 40 15.1777 40 24.0005C40 32.8223 32.8232 40 24.0005 40C15.1777 40 8 32.8223 8 24.0005Z" fill="#F0C900"/>
<path d="M24.0005 8.77038C15.5894 8.77038 8.77051 15.5884 8.77051 24.0004C8.77051 32.4117 15.5894 39.2306 24.0005 39.2306C32.4118 39.2306 39.2307 32.4117 39.2307 24.0004C39.2307 15.5884 32.4118 8.77038 24.0005 8.77038ZM24.0005 12.7781C30.1989 12.7781 35.223 17.8021 35.223 24.0004C35.223 30.1979 30.1989 35.222 24.0005 35.222C17.8031 35.222 12.7782 30.1979 12.7782 24.0004C12.7782 17.8021 17.8031 12.7781 24.0005 12.7781Z" fill="#008754"/>
<path d="M18.084 32.2832V15.7168H20.5988V22.8166H27.4027V15.7168H29.9165V32.2832H27.4027V25.0355H20.5988V32.2832" fill="#008754"/>
</svg>
